<svg width="905" height="2031" viewBox="0 0 905 2031" fill="none" xmlns="http://www.w3.org/2000/svg">
<g clip-path="url(#clip0_725_2354)">
<g opacity="0.8">
<mask id="mask0_725_2354" style="mask-type:luminance" maskUnits="userSpaceOnUse" x="-525" y="-336" width="3894" height="3248">
<path d="M-524.585 1506.74L2518.08 2911.71L3368.98 1068.97L326.312 -336L-524.585 1506.74Z" fill="white"/>
</mask>
<g mask="url(#mask0_725_2354)">
<g opacity="0.4" filter="url(#filter0_f_725_2354)">
<path fill-rule="evenodd" clip-rule="evenodd" d="M662.144 1145.7C576.186 978.993 492.835 817.344 576.163 719.881C708.041 565.967 1169.38 570.477 1537.57 686.026C1802.58 769.23 2010.92 902.44 2146.14 1039.33C2449.72 1346.84 2419.01 1644.93 2157.71 1875.49C1985.87 2026.96 1778.3 2066.86 1581.05 2042.15C1369.49 2015.29 1171.74 1913.15 1044.46 1800.53C958.442 1724.56 820.443 1566.21 776.46 1405.75C753.804 1323.47 707.607 1233.88 662.136 1145.69L662.144 1145.7ZM1719.08 1176.08C1542.62 1065.07 1321.08 1074.6 1224.25 1197.36C1127.41 1320.11 1191.95 1509.62 1368.41 1620.63C1544.86 1731.64 1766.41 1722.12 1863.25 1599.36C1960.08 1476.6 1895.54 1287.1 1719.08 1176.08Z" fill="url(#paint0_linear_725_2354)"/>
</g>
<g filter="url(#filter1_df_725_2354)">
<path fill-rule="evenodd" clip-rule="evenodd" d="M1892.6 957.262C1565.67 751.591 1051.2 730.904 941.176 849.614C894.259 900.227 920.098 1009.56 951.381 1141.98C962.088 1187.3 973.441 1235.34 982.736 1284.66C990.568 1326.24 993.327 1369.21 996.055 1411.83C1002.82 1517.3 1009.45 1620.61 1092.55 1695.44C1365.36 1941.1 1931.03 1937.95 2110.44 1710.51C2289.86 1483.06 2219.51 1162.94 1892.59 957.259L1892.6 957.262ZM1755.69 1130.83C1550.23 1001.56 1292.26 1012.66 1179.5 1155.59C1066.75 1298.53 1141.9 1519.19 1347.36 1648.45C1552.82 1777.71 1810.78 1766.62 1923.54 1623.68C2036.3 1480.74 1961.15 1260.09 1755.68 1130.83L1755.69 1130.83Z" fill="url(#paint1_radial_725_2354)"/>
</g>
<g filter="url(#filter2_f_725_2354)">
<path d="M655.274 805.256C842.977 567.307 1531.2 723.031 1873.2 938.193C2215.23 1153.37 2340.32 1520.7 2152.62 1758.65C1964.92 1996.6 1535.48 2015.07 1193.46 1799.89C1023.57 1693.01 973.291 1444.66 857.924 1253.94C741.015 1060.69 560.77 925 655.233 805.237L655.274 805.256Z" fill="url(#paint2_linear_725_2354)" fill-opacity="0.97"/>
</g>
</g>
</g>
</g>
<defs>
<filter id="filter0_f_725_2354" x="45.9328" y="105.818" width="2813.67" height="2438.91" filterUnits="userSpaceOnUse" color-interpolation-filters="sRGB">
<feFlood flood-opacity="0" result="BackgroundImageFix"/>
<feBlend mode="normal" in="SourceGraphic" in2="BackgroundImageFix" result="shape"/>
<feGaussianBlur stdDeviation="247.893" result="effect1_foregroundBlur_725_2354"/>
</filter>
<filter id="filter1_df_725_2354" x="844.658" y="702.944" width="1432.96" height="1245.08" filterUnits="userSpaceOnUse" color-interpolation-filters="sRGB">
<feFlood flood-opacity="0" result="BackgroundImageFix"/>
<feColorMatrix in="SourceAlpha" type="matrix" values="0 0 0 0 0 0 0 0 0 0 0 0 0 0 0 0 0 0 127 0" result="hardAlpha"/>
<feOffset dy="-3.21939"/>
<feGaussianBlur stdDeviation="35.4133"/>
<feComposite in2="hardAlpha" operator="out"/>
<feColorMatrix type="matrix" values="0 0 0 0 0.0195659 0 0 0 0 0.631952 0 0 0 0 0.670833 0 0 0 0.9 0"/>
<feBlend mode="normal" in2="BackgroundImageFix" result="effect1_dropShadow_725_2354"/>
<feBlend mode="normal" in="SourceGraphic" in2="effect1_dropShadow_725_2354" result="shape"/>
<feGaussianBlur stdDeviation="12.0727" result="effect2_foregroundBlur_725_2354"/>
</filter>
<filter id="filter2_f_725_2354" x="403.444" y="460.367" width="2061.8" height="1714.92" filterUnits="userSpaceOnUse" color-interpolation-filters="sRGB">
<feFlood flood-opacity="0" result="BackgroundImageFix"/>
<feBlend mode="normal" in="SourceGraphic" in2="BackgroundImageFix" result="shape"/>
<feGaussianBlur stdDeviation="112.679" result="effect1_foregroundBlur_725_2354"/>
</filter>
<linearGradient id="paint0_linear_725_2354" x1="1089" y1="614.852" x2="1484.48" y2="2156.42" gradientUnits="userSpaceOnUse">
<stop stop-color="#2442AB"/>
<stop offset="1" stop-color="#33A8D4"/>
</linearGradient>
<radialGradient id="paint1_radial_725_2354" cx="0" cy="0" r="1" gradientUnits="userSpaceOnUse" gradientTransform="translate(1487.46 1327.64) rotate(-51.6792) scale(532.335 725.253)">
<stop stop-color="#D59F42"/>
<stop offset="0.28125" stop-color="#FDB07B"/>
<stop offset="0.52083" stop-color="#F3D3A1"/>
<stop offset="0.76562" stop-color="#7E9485"/>
<stop offset="1" stop-color="#D59F42"/>
</radialGradient>
<linearGradient id="paint2_linear_725_2354" x1="612.041" y1="765.523" x2="2031.46" y2="1909.01" gradientUnits="userSpaceOnUse">
<stop stop-color="#02226C"/>
<stop offset="0.16591" stop-color="#164787"/>
<stop offset="0.30769" stop-color="#8F94FF"/>
<stop offset="0.646881" stop-color="#164787"/>
<stop offset="0.758122" stop-color="#FDE14D"/>
<stop offset="0.860892" stop-color="#8F94FF"/>
</linearGradient>
<clipPath id="clip0_725_2354">
<rect width="905" height="2031" fill="white"/>
</clipPath>
</defs>
</svg>
